<?xml version="1.0" standalone="no"?>
<!DOCTYPE svg PUBLIC "-//W3C//DTD SVG 20010904//EN"
 "http://www.w3.org/TR/2001/REC-SVG-20010904/DTD/svg10.dtd">
<svg version="1.0" xmlns="http://www.w3.org/2000/svg"
 width="229.000000pt" height="229.000000pt" viewBox="0 0 229.000000 229.000000"
 preserveAspectRatio="xMidYMid meet">
<metadata>
Created by potrace 1.11, written by Peter Selinger 2001-2013
</metadata>
<g transform="translate(0.000000,229.000000) scale(0.100000,-0.100000)"
fill="#000000" stroke="none">
<path d="M985 2269 c-28 -10 -65 -32 -83 -48 -25 -23 -37 -28 -54 -22 -35 13
-120 -6 -163 -37 -46 -32 -93 -116 -98 -176 -6 -63 11 -128 47 -181 19 -27 37
-66 40 -85 3 -19 8 -46 10 -60 6 -34 16 -97 22 -140 2 -19 7 -46 9 -60 8 -40
45 -339 51 -410 3 -36 7 -78 9 -95 22 -162 25 -622 5 -760 -21 -148 -21 -154
0 -175 19 -19 36 -20 363 -20 315 0 345 1 359 18 22 25 26 43 17 76 -5 16 -11
61 -15 100 -3 39 -8 82 -10 96 -5 30 -5 414 0 450 2 14 7 75 11 135 4 61 8
121 10 135 1 14 6 61 11 105 4 44 8 82 9 85 1 3 5 37 9 75 5 39 9 77 11 85 2
8 6 38 9 65 4 28 11 75 16 105 5 30 11 69 13 85 17 117 31 185 38 185 14 0 57
83 63 123 8 49 -9 121 -37 159 -30 41 -90 70 -137 67 -21 -2 -44 2 -52 8 -35
28 -84 44 -134 44 -29 0 -58 -2 -62 -5 -5 -3 -20 6 -33 20 -59 63 -167 86
-254 53z m186 -180 c62 -64 73 -67 126 -33 36 23 62 16 104 -26 43 -43 64 -48
108 -25 23 11 31 12 39 2 26 -31 13 -107 -18 -107 -10 0 -22 5 -25 10 -14 23
-66 10 -98 -25 -41 -44 -68 -50 -119 -24 -49 25 -84 15 -110 -31 -20 -35 -73
-70 -108 -70 -34 0 -88 34 -108 70 -27 46 -56 55 -108 30 -24 -12 -52 -19 -62
-16 -62 20 -92 122 -53 183 26 42 67 50 116 24 45 -24 72 -17 100 26 31 46 74
73 119 73 35 0 46 -7 97 -61z m294 -430 c-8 -45 -17 -85 -20 -87 -3 -3 -515
-6 -591 -3 -17 1 -22 11 -33 67 -6 37 -11 68 -9 69 2 2 17 5 34 6 22 3 40 -4
65 -25 48 -41 96 -59 159 -59 62 0 130 26 172 67 24 23 32 25 65 18 44 -10
107 3 143 29 14 10 26 14 28 9 2 -4 -4 -45 -13 -91z m-40 -253 c-10 -80 -16
-124 -20 -161 -3 -22 -7 -58 -9 -80 -3 -22 -8 -67 -11 -100 -3 -33 -8 -78 -10
-100 -25 -217 -24 -736 1 -817 4 -14 0 -18 -18 -18 -40 -1 -412 -2 -432 -1
-17 1 -18 7 -10 84 16 156 10 585 -11 777 -2 19 -6 62 -10 95 -5 53 -12 115
-31 267 -2 24 -7 53 -9 65 l-5 22 290 -1 290 0 -5 -32z"/>
</g>
</svg>
